<?xml version="1.0" encoding="utf-8"?>
<!-- Generator: Adobe Illustrator 23.0.1, SVG Export Plug-In . SVG Version: 6.00 Build 0)  -->
<svg version="1.1" id="Layer_1" xmlns="http://www.w3.org/2000/svg" xmlns:xlink="http://www.w3.org/1999/xlink" x="0px" y="0px"
	 width="1920px" height="1000px" viewBox="0 0 1920 1000" style="enable-background:new 0 0 1920 1000;" xml:space="preserve">
<style type="text/css">
	.st0{clip-path:url(#SVGID_2_);fill:url(#SVGID_3_);}
	.st1{clip-path:url(#SVGID_5_);fill:url(#SVGID_6_);}
	.st2{fill:#FFFFFF;}
	.st3{fill:#E6E6E7;}
	.st4{fill:#343444;}
	.st5{fill:#F0F1F1;}
	.st6{fill:#D34A4A;}
	.st7{fill:#3D3D77;}
	.st8{fill:#262260;}
	.st9{fill:#EA5E5E;}
	.st10{fill:#D0D2D3;}
	.st11{fill:#FFBA7F;}
	.st12{fill:#BBBDBF;}
	.st13{fill:#57585A;}
	.st14{fill:#929597;}
	.st15{fill:#3B2314;}
	.st16{fill:#221F1F;}
	.st17{fill:#D15C58;}
	.st18{fill:#F88976;}
	.st19{fill:#F69D5E;}
	.st20{fill:none;stroke:#221F1F;stroke-width:9.9675;stroke-miterlimit:10;}
	.st21{fill:none;stroke:#221F1F;stroke-width:21.5435;stroke-linecap:round;stroke-miterlimit:10;}
	.st22{fill:none;stroke:#221F1F;stroke-width:19.4802;stroke-miterlimit:10;}
	.st23{fill:none;stroke:#221F1F;stroke-width:21.6257;stroke-linecap:round;stroke-miterlimit:10;}
	.st24{fill:none;stroke:#221F1F;stroke-width:18;stroke-linecap:square;stroke-miterlimit:10;}
	.st25{fill:#601402;}
	.st26{fill:#0A75C4;}
	.st27{fill:#F7A96D;}
	.st28{fill:#035693;}
	.st29{fill:none;stroke:#221F1F;stroke-width:2.6617;stroke-miterlimit:10;}
	.st30{fill:none;stroke:#221F1F;stroke-width:5.753;stroke-linecap:round;stroke-miterlimit:10;}
	.st31{fill:none;stroke:#221F1F;stroke-width:5.202;stroke-miterlimit:10;}
	.st32{fill:none;stroke:#221F1F;stroke-width:5.775;stroke-linecap:round;stroke-miterlimit:10;}
	.st33{fill:none;stroke:#221F1F;stroke-width:3.852;stroke-linecap:square;stroke-miterlimit:10;}
</style>
<g>
	<defs>
		<rect id="SVGID_1_" x="-82.2" y="543.8" width="2002.3" height="472.9"/>
	</defs>
	<clipPath id="SVGID_2_">
		<use xlink:href="#SVGID_1_"  style="overflow:visible;"/>
	</clipPath>
	
		<linearGradient id="SVGID_3_" gradientUnits="userSpaceOnUse" x1="570.2" y1="222.2341" x2="1963.1886" y2="222.2341" gradientTransform="matrix(1 0 0 -1 0 997.8898)">
		<stop  offset="0" style="stop-color:#8BEAD8"/>
		<stop  offset="1" style="stop-color:#92C7D8"/>
	</linearGradient>
	<path class="st0" d="M570.2,870.9c129.2-102.3,299.6-137,464.1-145.7c164.6-8.7,330.3,5.4,494-13.8
		c126.6-14.8,250.8-49.6,366.6-102.6c16.8-7.7,37.2-15.6,52.8-5.6c17,10.9,16.7,35.5,14.3,55.6c-8,68.4-19.7,144-73.3,187.2
		c-32.6,26.2-75.2,35.6-116.3,43.5c-284.4,54.4-575.4,73.9-864.6,57.9C791.7,940.8,672,927.5,570.2,870.9L570.2,870.9z"/>
</g>
<g>
	<defs>
		<rect id="SVGID_4_" x="-82.2" y="543.8" width="2002.3" height="472.9"/>
	</defs>
	<clipPath id="SVGID_5_">
		<use xlink:href="#SVGID_4_"  style="overflow:visible;"/>
	</clipPath>
	
		<linearGradient id="SVGID_6_" gradientUnits="userSpaceOnUse" x1="87.3001" y1="102.5542" x2="2035.2766" y2="102.5542" gradientTransform="matrix(1 0 0 -1 0 997.8898)">
		<stop  offset="0" style="stop-color:#7DCFD8"/>
		<stop  offset="1" style="stop-color:#8BEAD8"/>
	</linearGradient>
	<path class="st1" d="M1245.5,845.7c212.2-21.9,411.9-126,625.1-129.2c37.4-0.6,77.2,2.8,107.4,25c48.3,35.5,54.7,103.9,56.8,163.8
		c1.5,42.5,1.2,90-28.1,120.9c-28.6,30.1-74.7,33.6-116.2,34.3c-309.3,5.4-618.3-33.3-927.5-24.6c-287.6,8.1-599.8,81.8-875.7,0.4
		C162,924.8,310.5,835.6,443,813.5s268-7.2,401.2,9.9C977.4,840.4,1111.9,859.5,1245.5,845.7L1245.5,845.7z"/>
</g>
<g>
	<g>
		<g>
			<path class="st2" d="M1263.6,842.7l-6.3,0.3C1260.5,844.8,1263.6,842.7,1263.6,842.7z"/>
			<path class="st2" d="M1232.4,626.9c-48.5,10.4-41.6,102.4-43.8,187l7.6,31.7l61.1-2.7c-4.3-2.5-8.8-12.1-6.1-43.9
				c4.7-55.3,3.4-77.4,3.4-77.4l55.4-125.9C1310,595.7,1250.9,623,1232.4,626.9z"/>
		</g>
		<polygon class="st3" points="1246.9,807.8 1253.7,806.2 1252.3,720.6 		"/>
		<polygon class="st4" points="1275,980.9 1274.7,1016.7 1365,1016.7 1366.2,978.3 		"/>
		<polygon class="st4" points="1377,980.9 1378.1,1016.7 1468.4,1016.7 1468.2,983.6 		"/>
		<g>
			<path class="st5" d="M1487.3,842.8l-2.2-0.1C1485.1,842.7,1486.3,844.9,1487.3,842.8z"/>
			<path class="st5" d="M1502.9,626.9c-18.5-4-77.6-31.3-77.6-31.3l55.4,125.9c0,0,1.3,22.1,6,77.4c2.7,31.2,1.8,41.1,0.6,43.8
				l51.7,2.9l7.6-31.7C1544.5,729.3,1551.4,637.4,1502.9,626.9z"/>
		</g>
		<polygon class="st6" points="1330.4,611.8 1249.6,642.2 1249.5,934.3 1485.5,934.4 1485.6,642.2 1409.3,601.3 		"/>
		<polygon class="st7" points="1359.5,647.3 1347.1,821.1 1369.6,860.4 1392.8,822.8 1377.8,647.3 		"/>
		<path class="st8" d="M1368.4,607.6c0,0-18.3,0.4-22.8,8.6c-9.9,18.2,13.9,33.7,13.9,33.7h18.3c0,0,19.6-14.1,14.1-27.7
			C1387.4,611.2,1368.4,607.6,1368.4,607.6z"/>
		<g>
			<polygon class="st9" points="1306.6,600.9 1335,640.1 1369.4,606.2 1311.8,568.6 			"/>
			<polygon class="st9" points="1367.3,606.2 1401.8,640.1 1427.5,603.6 1424.9,568.7 			"/>
		</g>
		<path class="st2" d="M1311.8,598.4l-58.5,26.4l-11.5,70.7c0,0-4.3,201.6-5.7,321.2h135.4l3.8-183.5L1311.8,598.4z"/>
		<polygon class="st5" points="1294.4,598.4 1279.2,661.2 1303.8,685.4 1301.6,704.4 1375.3,833.2 1308.5,584.9 		"/>
		<polygon class="st10" points="1261.9,930 1314.4,930 1314.4,923.1 1261.9,923.1 		"/>
		<path class="st5" d="M1482.9,624.9l-58.5-26.5l-63.7,234.8l0.1,183.5h139.1c-1.4-119.6-5.6-321.2-5.6-321.2L1482.9,624.9z"/>
		<polygon class="st2" points="1441.8,598.4 1427.7,585 1360.7,833.2 1442.3,704.4 1432.3,685.4 1457,661.2 		"/>
		<path class="st10" d="M1375.8,858.3c-2.9,0-5.2,2.3-5.2,5.2c0,2.9,2.3,5.2,5.2,5.2c2.9,0,5.2-2.3,5.2-5.2
			C1381,860.6,1378.7,858.3,1375.8,858.3z"/>
		<path class="st10" d="M1375.8,912.7c-2.9,0-5.2,2.3-5.2,5.2c0,2.9,2.3,5.2,5.2,5.2c2.9,0,5.2-2.3,5.2-5.2
			C1381,915,1378.6,912.7,1375.8,912.7z"/>
		<path class="st10" d="M1376.1,970.6c-2.9,0-5.2,2.3-5.2,5.2c0,2.9,2.3,5.2,5.2,5.2c2.9,0,5.2-2.3,5.2-5.2
			C1381.3,972.9,1379,970.6,1376.1,970.6z"/>
		<polygon class="st10" points="1420.1,930.1 1472.5,930.1 1472.5,923.2 1420.1,923.2 		"/>
		<polygon class="st10" points="1307.2,837.3 1496.4,873.6 1496.4,857.5 1309.9,819.9 		"/>
		<polygon class="st10" points="1388.6,782.7 1390.2,801.9 1484.7,814.2 1484.2,797.2 		"/>
		<polygon class="st10" points="1479,806.2 1485.7,807.8 1480.3,720.6 		"/>
		<path class="st11" d="M1276.1,765.2c-2.5,5.5,6.5,11.2,6.5,11.2s-21.5-5.8-29.3-3.5c-7.7,2.3-12.1,11.9-13.1,18.7
			c-1.1,6.8,5.7,19.3,17.5,23.5c11.8,4.2,47.9,9.4,51.3,5.3c3.4-4.2,9.2-37.3,9.2-37.3l-28.8-19.5
			C1289.4,763.5,1278.5,759.7,1276.1,765.2z"/>
		<path class="st5" d="M1496.7,809l-180.1-35.6l-9.9,56.9c0,0,166.5,32.5,205.2,38.9c38.7,6.4,33.7-64.3,33.7-64.3L1496.7,809z"/>
		<polygon class="st10" points="1238.9,857.5 1238.9,873.6 1428.1,837.3 1425.4,819.9 		"/>
		<path class="st11" d="M1440.3,774.8c-21-1.4-33.3,5.6-33.3,5.6s5.8,33.2,9.2,37.3c3.4,4.2,19.2-12.8,31.1-17
			c11.8-4.2,23.3-2.5,30.6-3.4C1484.6,796.4,1459.6,776.1,1440.3,774.8z"/>
		<path class="st2" d="M1238.6,803.6l-48.8,1.2c0,0-5,70.7,33.7,64.3c38.7-6.4,205.2-38.9,205.2-38.9l-9.9-62.3L1238.6,803.6z"/>
	</g>
	<g>
		<g>
			<g>
				<path class="st12" d="M1279.3,809.1c-6.5,1-14.6,0.7-17.4-1.9c-1.8-1.3-3.9-6.9-4.8-14.6c-2.1-15.3-1.4-38.5-1.6-56.8l-5.4,0.1
					c0.2,18.2-0.5,41.4,1.6,57.5c1.2,8.1,2.6,14.4,6.7,18c5.8,4.6,14.6,4,21.6,3.1c5.7-0.8,10.1-2,10.2-2l-1.4-5.2
					C1288.7,807.3,1284.6,808.4,1279.3,809.1z"/>
			</g>
			<g>
				<path class="st13" d="M1285.3,805.2c-3.6,0.8-6.1,3.4-5.6,5.8c0.5,2.4,3.9,3.7,7.5,3c3.6-0.8,6.1-3.4,5.6-5.8
					C1292.3,805.8,1288.9,804.5,1285.3,805.2z"/>
			</g>
		</g>
		<g>
			<g>
				<path class="st12" d="M1332.4,724.8l-5.2,1.4c4.6,17.7,11.4,39.9,13.4,55.2c1.1,7.6,0.6,13.6-0.8,15.4c-2,3.3-9.8,5.7-16.3,6.4
					c-5.3,0.7-9.6,0.7-9.6,0.7l0,5.4c0.1,0,4.7,0,10.4-0.7c7-1,15.7-2.7,20-8.7c2.9-4.5,2.7-11,1.7-19.1
					C1343.8,764.6,1337,742.4,1332.4,724.8z"/>
			</g>
			<g>
				<path class="st13" d="M1316.7,801c-3.7,0.2-6.6,2.4-6.5,4.9c0.1,2.5,3.3,4.3,7,4.1c3.7-0.2,6.6-2.4,6.4-4.8
					C1323.5,802.7,1320.4,800.8,1316.7,801z"/>
			</g>
		</g>
		<g>
			<path class="st13" d="M1284.4,678.9c-24,3.4-38.7,30.7-34.8,60.1l6.9-0.9h0c-1.8-13.4,0.7-26,6.1-35.4
				c5.4-9.4,13.3-15.6,22.7-16.8c9.4-1.3,18.7,2.6,26.3,10.3c7.6,7.7,13.4,19.2,15.1,32.5l6.9-0.9
				C1329.7,698.3,1308.5,675.9,1284.4,678.9z"/>
		</g>
	</g>
	<g>
		<path class="st13" d="M1291.3,587.3c-6.5,8.4-12.1,19.2-14.2,30.6c-0.8,4.5-1.2,9.2-1.2,13.7c0,18.1,5,52.5,5,52.7l6.7-2h0
			c0,0-0.2-3.8-1.4-9.9c-1.3-6.1-3.6-32.5-3.6-40.9c0-4.2,0.3-8.4,1.1-12.4c1.9-10.1,7-20.1,13-27.8c5.9-7.7,12.8-13,16.8-13.9
			l-1.6-6.5C1305,572.8,1297.8,578.9,1291.3,587.3z"/>
	</g>
	<g>
		<path class="st13" d="M1445.4,587.3c-6.6-8.4-13.7-14.5-20.5-16.3l-1.6,6.5c4,0.9,10.9,6.2,16.8,13.9c5.9,7.7,11.1,17.7,13,27.8
			c0.7,3.9,1,9.1,1,14.7c0,22.5-5.1,52.3-5.1,52.4l6.6,1.2v0c0-0.1,5.2-30.1,5.2-53.5c0-5.9-0.3-11.3-1.2-15.9
			C1457.5,606.5,1451.9,595.7,1445.4,587.3z"/>
	</g>
	<g>
		<path class="st14" d="M1445.2,684.3c-13.3,0-24.2,10.8-24.2,24.2c0,13.3,10.8,24.2,24.2,24.2c13.3,0,24.2-10.8,24.2-24.2
			C1469.4,695.1,1458.5,684.3,1445.2,684.3z"/>
		<path class="st10" d="M1445.2,696.9c-6.4,0-11.6,5.2-11.6,11.6c0,6.4,5.2,11.6,11.6,11.6c6.4,0,11.6-5.2,11.6-11.6
			C1456.8,702.1,1451.6,696.9,1445.2,696.9z"/>
	</g>
	<g>
		<path class="st11" d="M1248.3,451.9c-11.6,3.4-8.9,20.7-8.9,27.2c0,6.5,9.7,29.4,16.2,31.9c16.4,6.4,16.4-17.6,16.4-17.6v-27.9
			C1272,465.5,1259.9,448.5,1248.3,451.9z"/>
		<path class="st11" d="M1483.8,452.2c-11.6-3.4-23.7,13.6-23.7,13.6v27.9c0,0,0,24.7,16.4,17.6c6.4-2.8,16.2-25.4,16.2-31.9
			C1492.7,472.9,1495.4,455.5,1483.8,452.2z"/>
		<path class="st11" d="M1395.3,329.8l-57.5,0c-41.7,0-75.5,44.1-75.6,98.5l0,75c0,54.4,56.7,92.6,75.5,98.6
			c19.8,6.3,39.2,5.4,57.5,0c19.8-5.8,75.5-44.1,75.6-98.5l0-75C1470.8,373.9,1437,329.8,1395.3,329.8z"/>
		<path class="st15" d="M1262.3,470.9c7.7-6.2,27-111,28-116.6l-33,10.5C1257.3,364.8,1255.5,476.3,1262.3,470.9z"/>
		<path class="st15" d="M1446.2,360.9c0,0,19.5,107.1,25.6,112.2c6.1,5.1,4.6-95.8,4.6-95.8L1446.2,360.9z"/>
		<g>
			<path class="st16" d="M1320,463.6c-6.8,0-12.4,5.5-12.4,12.4c0,6.8,5.5,12.4,12.4,12.4c6.8,0,12.4-5.5,12.4-12.4
				C1332.4,469.1,1326.9,463.6,1320,463.6z"/>
			<path class="st16" d="M1414.3,463.6c-6.8,0-12.4,5.5-12.4,12.4c0,6.8,5.5,12.4,12.4,12.4c6.8,0,12.4-5.5,12.4-12.4
				C1426.7,469.1,1421.1,463.6,1414.3,463.6z"/>
			<g>
				<path class="st15" d="M1445.8,443.1c-14.4-9.6-41.9-6.3-46.1-5.9c-3.7,0.4-11.2,3.6-10.8,7.3c0.4,3.7,13.3,6.4,16.9,6
					c14-1.4,26.9-2.7,46.6,1.8C1456,453.2,1448.8,445.2,1445.8,443.1z"/>
			</g>
			<g>
				<path class="st15" d="M1336.6,437.8c-4.2-0.4-31.7-3.8-46.1,5.9c-3.1,2-10.2,10.2-6.6,9.3c20.1-5.1,32.7-3.2,46.6-1.8
					c3.7,0.4,16.6-2.3,17-6C1347.7,441.5,1340.2,438.2,1336.6,437.8z"/>
			</g>
		</g>
		<g>
			<path class="st17" d="M1329.1,542.1c6,12.5,14.9,32.9,41.8,32.8c28.2,0,45.6-43.1,45.6-43.1
				C1381,548.7,1360.7,550.7,1329.1,542.1z"/>
			<path class="st2" d="M1336.2,543.9c2.2,7.4,12.6,10.4,33.6,8.9c27.8-2,34-8.8,37.4-16.7C1384.9,546.4,1354.3,547.8,1336.2,543.9z
				"/>
			<path class="st18" d="M1370.5,562.3c0,0-5.3-4.2-11.5-4.2c-6.2,0-17.9,3.9-17.9,3.9c5.4,7.4,15.2,12.8,29,12.8
				c17.4,0.1,28-14,28-14s-10.9-2.7-18.4-2.7C1374.9,558.1,1370.5,562.3,1370.5,562.3z"/>
		</g>
		<path class="st19" d="M1383,516.3c-10.8,9-26,6.3-30.5,0c0,0,4.5,16.1,15.3,15.6C1378.6,531.4,1393.8,507.3,1383,516.3z"/>
		<path class="st15" d="M1396,300.1c-47.8-11-74.2,7.4-74.2,7.4s-7-5.6-1.6-12.8c-13.2,1.8-16.9,15.4-21.1,25.9
			c-13.2-4.2-23.9,1.4-23.9,1.4s10.6,8.2-0.8,17.7c-32.1,26.5-16.9,57.4-16.9,57.4s11.8,29.4,17.5,23.5c21.1-22.3,37.6-34,41.2-50.9
			c0,0,22.4,29,52.6,35.8c24.9,5.6,55.7,10.4,68.7,7.8c-11.2-11.2-14.4-32.5-14.4-32.5s35.7,65.5,53,16.9
			C1494.3,346,1430.1,308,1396,300.1z"/>
	</g>
	<g>
		<g>
			<path class="st20" d="M1350.4,463.8c0,0,0,27.6-13.2,34.2c-10.5,5.3-40,4.8-48.1-2.7c-8.1-7.5-11.5-34.1-11.5-34.1"/>
			<path class="st21" d="M1275.2,463.2c0,0,49.3-10.1,77.6,1"/>
		</g>
		<line class="st22" x1="1279.9" y1="466.7" x2="1253.9" y2="448.9"/>
		<g>
			<path class="st20" d="M1384.1,463.8c0,0,0,27.7,13.2,34.4c10.6,5.3,40.2,4.8,48.3-2.8c8.1-7.6,11.5-34.2,11.5-34.2"/>
			<path class="st23" d="M1381.7,464.2c30.6-10.2,77.9-1,77.9-1"/>
		</g>
		<line class="st22" x1="1454.9" y1="466.7" x2="1480.9" y2="448.9"/>
		<path class="st24" d="M1352.9,468.9c0,0,8.9-4.5,15-4.5c7.4,0,13.8,3.7,13.8,3.7"/>
	</g>
</g>
<g>
	<path class="st25" d="M1747.7,568.5c-36.4-22.1-84.6-68.3-111.3-71.9c-30.1-4.1-118.4-70.6-114.9-30.8
		c11.4,130.5-35.7,112.8-35.7,112.8s41.4,32,83.9,33.6c42.5,1.5,91.1,6.6,134.3,0.9c43.2-5.7,77.5-37.2,77.5-37.2
		S1769.2,581.5,1747.7,568.5z"/>
	<g>
		<g>
			<polygon class="st26" points="1597.9,611.7 1520.3,640.9 1567.5,934.5 1702.8,934.6 1747.1,641 1673.8,614.6 			"/>
			<g>
				<path class="st2" d="M1529.8,853l-6.2,0.3C1526.8,855.1,1529.8,853,1529.8,853z"/>
				<path class="st2" d="M1498.7,640.9c-25.3,9.8-41.5,99-43.7,183.5l7.6,31.6l60.9-2.7c-4.3-2.5-8.8-12.1-6.1-43.9
					c4.7-55.2,3.4-77.2,3.4-77.2l55.2-119.4C1576.1,612.9,1516.3,634.1,1498.7,640.9z"/>
			</g>
			<g>
				<path class="st5" d="M1768.6,640.9c-17.3-7.5-77.4-28-77.4-28l55.2,119.4c0,0,1.3,22,6,77.2c2.7,31.1,1.8,41,0.6,43.7l51.6,2.9
					l7.6-31.6C1810.1,739.9,1791.3,650.8,1768.6,640.9z"/>
				<path class="st5" d="M1753.1,853.2l-2.2-0.1C1750.9,853,1752.1,855.3,1753.1,853.2z"/>
			</g>
			<polygon class="st4" points="1519.7,987.2 1521.3,1017.2 1752.1,1017.2 1753.1,987.5 			"/>
			<g>
				<polygon class="st27" points="1628.3,671.1 1642.8,671.9 1681.9,602 1589.6,607.1 				"/>
				<polygon class="st28" points="1576.3,615.4 1616.2,681.4 1636.7,670.9 1581.3,584.3 				"/>
				<polygon class="st28" points="1634.7,670.9 1655.1,681.4 1692.5,617.9 1690,584.4 				"/>
			</g>
			<path class="st2" d="M1581.3,612.9l-56.3,22l-17.3,71.3c0,0,46,100.9,25.2,149c-21.2,49.1-27,112.4-27.7,162.1h133.3l3.7-178.7
				L1581.3,612.9z"/>
			<polygon class="st5" points="1564.6,612.9 1550,673.2 1573.7,696.5 1571.5,714.8 1642.3,838.5 1578.2,600 			"/>
			<polygon class="st10" points="1533.4,931.6 1583.8,931.6 1583.8,925 1533.4,924.9 			"/>
			<path class="st5" d="M1771,704.5l-23.6-71.4l-56.2-22L1630,836.8l0.1,180.4h135.3c-1.6-48.9-8.6-111.8-29.9-162.8
				C1706.5,785.2,1771,704.5,1771,704.5z"/>
			<path class="st10" d="M1642.8,862.6c-2.8,0-5,2.2-5,5c0,2.8,2.2,5,5,5c2.7,0,5-2.2,5-5C1647.8,864.9,1645.6,862.6,1642.8,862.6z"
				/>
			<path class="st10" d="M1642.8,915c-2.7,0-5,2.2-5,5c0,2.7,2.2,5,5,5c2.7,0,5-2.2,5-5C1647.8,917.2,1645.5,915,1642.8,915z"/>
			<path class="st10" d="M1643.1,970.6c-2.8,0-5,2.2-5,5c0,2.8,2.2,5,5,5c2.7,0,5-2.2,5-5C1648.1,972.8,1645.9,970.6,1643.1,970.6z"
				/>
			<polygon class="st10" points="1685.4,931.6 1735.8,931.7 1735.8,925 1685.4,925 			"/>
			<polygon class="st2" points="1706.2,612.9 1692.7,600 1628.3,838.5 1706.7,714.8 1697.1,696.5 1720.8,673.3 			"/>
			<polygon class="st10" points="1580.7,830.8 1576.2,847.8 1744.7,880.6 1739.8,861 			"/>
			<path class="st11" d="M1542.3,775.7c-2.5,5.5,6.5,11.1,6.5,11.1s-21.5-5.8-29.2-3.5c-7.7,2.3-12,11.9-13.1,18.6
				c-1.1,6.7,5.7,19.2,17.5,23.4c11.8,4.2,47.8,9.4,51.2,5.3c3.4-4.2,9.2-37.2,9.2-37.2l-28.7-19.4
				C1555.6,774,1544.7,770.2,1542.3,775.7z"/>
			<path class="st5" d="M1765.1,813.9l-182.4-30l-9.9,56.8c0,0,166.1,32.4,204.7,38.8c38.6,6.4,34.8-63.4,34.8-63.4L1765.1,813.9z"
				/>
			<polygon class="st10" points="1527.5,865.1 1523.2,881.3 1695.6,848.2 1692.9,830.8 			"/>
			<path class="st11" d="M1706.1,788.4c-21-1.4-33.2,5.5-33.2,5.5s5.8,33.1,9.2,37.2c3.4,4.2,19.2-12.8,31-17
				c11.8-4.2,23.2-2.5,30.5-3.4C1750.4,810,1725.4,789.7,1706.1,788.4z"/>
			<path class="st2" d="M1504.9,814l-49.9,1.7c0,0-3.8,70.1,34.8,63.7c38.6-6.4,204.7-38.8,204.7-38.8l-9.9-62.1L1504.9,814z"/>
		</g>
		<g>
			<g>
				<g>
					<path class="st12" d="M1532.5,799.4c-6.3,0.1-14-1.3-16.4-4.2c-1.6-1.5-2.8-7.1-2.6-14.5c0.1-14.8,3.8-36.9,6-54.3l-5.1-0.7
						c-2.2,17.3-6,39.3-6.1,54.9c0.1,7.8,0.6,14.1,4,18c4.9,5.1,13.4,5.7,20.2,5.9c5.5,0,9.9-0.5,10-0.6l-0.7-5.1
						C1541.7,798.9,1537.6,799.4,1532.5,799.4z"/>
				</g>
				<g>
					<path class="st13" d="M1538.7,796.5c-3.6,0.3-6.3,2.4-6.1,4.7c0.2,2.4,3.2,4.1,6.7,3.8c3.6-0.3,6.3-2.4,6.1-4.7
						C1545.3,797.9,1542.3,796.2,1538.7,796.5z"/>
				</g>
			</g>
			<g>
				<g>
					<path class="st12" d="M1589.2,726.8c2,17.5,5.5,39.5,5.4,54.3c0,7.4-1.2,13-2.8,14.5c-2.4,2.9-10.1,4.1-16.4,4
						c-5.1,0-9.3-0.6-9.3-0.6l-0.7,5.1c0.1,0,4.4,0.6,10,0.7c6.8-0.1,15.3-0.5,20.2-5.6c3.4-3.9,4-10.1,4.1-18
						c0.1-15.6-3.4-37.6-5.4-55L1589.2,726.8z"/>
				</g>
				<g>
					<path class="st13" d="M1569.2,796.6c-3.6-0.3-6.6,1.4-6.8,3.8c-0.2,2.4,2.5,4.5,6.1,4.8c3.6,0.3,6.6-1.4,6.8-3.8
						C1575.4,799.1,1572.7,796.9,1569.2,796.6z"/>
				</g>
			</g>
			<g>
				<path class="st13" d="M1554.7,676.1c-23.3,0.1-40.9,24.1-41.1,52.6l6.7,0c0.1-13,4.1-24.6,10.4-32.9c6.4-8.3,14.8-13.1,23.8-13
					c9.1,0.1,17.4,5,23.7,13.3c6.2,8.3,10.2,20,10.1,33l6.7,0C1595.3,700.6,1578,676.4,1554.7,676.1z"/>
			</g>
		</g>
		<g>
			<path class="st13" d="M1561.6,602.3c-6.2,8.1-11.6,18.5-13.7,29.4c-0.8,4.3-1.1,11.9-1.1,16.3v6.3c0.2,7,2.3,24.9,2.4,25.1h6.3
				c0,0-2.2-17-2.2-25.1V648c0-4,0.3-11.2,1-15.1c1.8-9.7,6.7-19.3,12.4-26.7c5.6-7.4,12.3-12.5,16.1-13.4l-1.5-6.3
				C1574.7,588.3,1567.9,594.2,1561.6,602.3z"/>
		</g>
		<g>
			<path class="st13" d="M1709.7,602.3c-6.3-8.1-13.2-13.9-19.7-15.7l-1.6,6.3c3.8,0.9,10.5,6,16.1,13.4c5.7,7.4,10.6,17,12.4,26.7
				c0.7,3.8,1,8.7,1,14.1c0,21.6-4.9,50.3-4.9,50.3l6.4,1.1v0c0-0.1,5-28.9,5-51.4c0-5.6-0.3-10.9-1.1-15.3
				C1721.3,620.7,1716,610.4,1709.7,602.3z"/>
		</g>
		<g>
			<path class="st14" d="M1709.5,695.5c-12.8,0-23.2,10.4-23.2,23.2c0,12.8,10.4,23.2,23.2,23.2c12.8,0,23.2-10.4,23.2-23.2
				C1732.7,705.9,1722.3,695.5,1709.5,695.5z"/>
			<circle class="st10" cx="1709.5" cy="718.7" r="11.2"/>
		</g>
	</g>
	<path class="st28" d="M1635.7,681.6c-2.1,0-3.8,1.7-3.8,3.8c0,2.1,1.7,3.8,3.8,3.8c2.1,0,3.8-1.7,3.8-3.8
		C1639.5,683.3,1637.8,681.6,1635.7,681.6z"/>
	<path class="st28" d="M1635.7,716.4c-2.1,0-3.8,1.7-3.8,3.8c0,2.1,1.7,3.8,3.8,3.8c2.1,0,3.8-1.7,3.8-3.8
		C1639.5,718.1,1637.8,716.4,1635.7,716.4z"/>
	<path class="st28" d="M1635.7,751.2c-2.1,0-3.8,1.7-3.8,3.8c0,2.1,1.7,3.8,3.8,3.8c2.1,0,3.8-1.7,3.8-3.8
		C1639.5,752.9,1637.8,751.2,1635.7,751.2z"/>
	<g>
		<g>
			<path class="st11" d="M1530.4,473.5c-10.3,3.2-7.9,19.9-7.9,26.1c0,6.2,8.6,28.1,14.4,30.5c14.6,6.1,14.7-16.8,14.7-16.8v-26.7
				C1551.5,486.5,1540.7,470.3,1530.4,473.5z"/>
			<path class="st11" d="M1740.4,473.7c-10.3-3.2-21.1,13-21.1,13v26.7c0,0,0,23.7,14.6,16.9c5.7-2.7,14.4-24.4,14.4-30.5
				C1748.3,493.6,1750.7,477,1740.4,473.7z"/>
			<path class="st11" d="M1661.5,366.8l-51.3,0c-37.2,0-67.4,32.8-67.4,85l0,71.9c0,52.2,50.6,88.7,67.3,94.5
				c17.7,6,34.9,5.2,51.3,0c17.6-5.6,67.4-42.3,67.4-94.4l0-71.9C1728.8,399.6,1698.7,366.8,1661.5,366.8z"/>
			<g>
				<path class="st16" d="M1594.3,484.7c-6.1,0-11,5.3-11,11.9c0,6.5,4.9,11.9,11,11.9c6.1,0,11-5.3,11-11.9
					C1605.4,490,1600.4,484.7,1594.3,484.7z"/>
				<path class="st16" d="M1678.4,484.7c-6.1,0-11,5.3-11,11.9c0,6.6,4.9,11.9,11,11.9c6.1,0,11-5.3,11-11.9
					C1689.4,490,1684.5,484.7,1678.4,484.7z"/>
				<g>
					<path class="st25" d="M1697.2,462c-18.2-4.1-26.2,0.6-30,1.3c-3.3,0.6-13.9,4.5-12.3,7.4c3,5.5,16-0.5,21.3-2.1
						c10.6-3.1,17.4-5.4,37.1,4.3C1716.4,474.4,1704.6,463.7,1697.2,462z"/>
				</g>
				<g>
					<path class="st25" d="M1610.4,463.3c-3.8-0.7-11.8-5.4-30-1.3c-7.4,1.7-19.1,12.4-16.1,10.9c19.6-9.7,26.5-7.4,37.1-4.3
						c5.3,1.6,18.3,7.5,21.3,2.1C1624.3,467.9,1613.7,464,1610.4,463.3z"/>
				</g>
			</g>
			<g>
				<path class="st17" d="M1602.4,560c5.4,12,13.3,31.5,37.3,31.5c25.1,0,40.7-41.3,40.7-41.3C1648.7,566.3,1630.6,568.2,1602.4,560
					z"/>
				<path class="st2" d="M1608.8,561.7c2,7.1,11.3,10,30,8.6c24.8-1.9,30.3-8.5,33.4-16.1C1652.1,564,1624.9,565.5,1608.8,561.7z"/>
				<path class="st18" d="M1639.3,579.3c0,0-4.7-4-10.2-4c-5.5,0-16,3.7-16,3.7c4.8,7.1,13.6,12.2,25.9,12.3
					c15.5,0.1,25-13.4,25-13.4s-9.7-2.5-16.4-2.6C1643.2,575.3,1639.3,579.3,1639.3,579.3z"/>
			</g>
			<path class="st19" d="M1650.5,535.3c-9.6,8.6-23.2,6-27.2,0c0,0,4,15.5,13.6,15C1646.5,549.7,1660.1,526.7,1650.5,535.3z"/>
		</g>
		<g>
			<g>
				<path class="st29" d="M1623.6,487.6c0,0,0,21.2-12.4,27.9c-9.9,5.4-37.6,4.8-45.1-2.8c-7.6-7.6-10.8-27.8-10.8-27.8"/>
				<path class="st30" d="M1556,487.1c0,0,27.4-20.3,69.8,1"/>
			</g>
			<line class="st31" x1="1557.3" y1="490.5" x2="1532.9" y2="472.6"/>
			<g>
				<path class="st29" d="M1649.3,487.6c0,0,0,21.3,12.4,28c9.9,5.4,37.7,4.8,45.3-2.8c7.6-7.6,10.8-27.9,10.8-27.9"/>
				<path class="st32" d="M1647,488.1c48.5-22.2,70.6-0.4,70.6-0.4"/>
			</g>
			<line class="st31" x1="1715.8" y1="490.5" x2="1740.2" y2="472.6"/>
			<path class="st33" d="M1624.9,493c0,0,7.1-3.4,12-3.4c5.9,0,11.1,2.8,11.1,2.8"/>
		</g>
		<path class="st25" d="M1752.1,413.5c-14.3-55.3-74.4-76.8-84.2-79.2c-42.6-10.6-66.2,0.8-66.2,0.8s-30.2,8.9-37.8,28.3
			c-21.2,0.3-31.7,16.3-39.6,27.7c-31.9,46.1-16,85.8-8.9,146.1c4.5,38.2-23.9,38.5-29.6,41.4c0,0,56.3,22.5,61.3,16.8
			c5.9-6.8-22.6-40-21.8-72.7c0.1-5.3,34.2-43.4,51-112.3c0,0,35.1,43.2,114.9,40.1c-10-10.8-13.8-32.5-13.8-32.5
			s23.6,34.1,47.7,52.3c12.7,61-24,126.6-8.3,123.7c17.1-3.1,31.9-7,64.7-18.1C1707,560,1778.9,516.9,1752.1,413.5z"/>
	</g>
</g>
</svg>
