<svg xmlns="http://www.w3.org/2000/svg" viewBox="0 0 155 50"><path d="M9.6 36.3c-.5.2-.9.4-1.2.7L.8 42.6c-.8 5.8 4 9 10.5 5.3 1.2-.7 2.4-1.4 3.7-2.1l-4.5-8.4c-.3-.4-.6-.8-.9-1.1zm7.6-22.1l12.4 2.7c.8.1 1.5 0 2.2-.5l.4-.3c-6.6-5.2-13.7-9.9-21-14-3.2-1.9-6.1-2-8-1L15.1 13c.6.6 1.3 1 2.1 1.2zM4.8 35.4l-2-.4c-.2 1.3-.5 2.5-.9 3.7l3.2-2.3c.5-.5.4-.9-.3-1zm3-2.9l-4-7.6c0 2.6-.2 5.2-.5 7.7l3.9.7c.6.1.9-.3.6-.8zm5.7 5.5l3.5 6.5c2.8-1.7 5.5-3.5 8.2-5.4l-11-2c-.8-.1-1.1.3-.7.9zM28 18.1l-8.8-1.9c-.7-.1-.8.1-.3.6l4.4 4.4c.5.5 1.3.5 1.9.1l3.1-2.3c.5-.3.4-.7-.3-.9zm3.4 1.7l-4.5 3.3c-.5.3-.6.9-.3 1.4.1.1.1.2.2.2l7.6 7.6c4.8-3.5 5.4-8.3 2.3-12.3l-3-.7c-.8-.1-1.6.1-2.3.5zm-20.7-7.7L1.5 2.9c-1.1 1.9-1.2 4.7.3 8l8.6 1.9c.6.1.8-.2.3-.7zm-.8 19.1c.2.5.8.7 1.3.5.1 0 .2-.1.2-.2l9.8-7.3c.5-.3.6-.9.3-1.4-.1-.1-.1-.2-.2-.2l-6.9-6.9c-.6-.5-1.3-.9-2.1-1.1L2.2 12.5c.5 2.1.9 4.3 1.2 6.5l6.5 12.2zm14.9-5c-.5-.5-1.3-.5-1.8-.1l-10 7.4c-.5.4-.4.8.2 1l14.7 2.7c1.5-1.1 3-2.2 4.5-3.4l-7.6-7.6zm51.8-1.3c0 6.8-5 11.5-12.3 11.5h-9.5v-23h9.7c7.1 0 12.1 4.7 12.1 11.5zm-5.3 0c0-4.2-3-7.2-6.9-7.2h-4.5V32h4.7c3.9 0 6.7-2.9 6.7-7.1zm32.8 0c0 6.6-5.3 11.7-12.3 11.7-7 0-12.3-5.1-12.3-11.7 0-6.7 5.3-11.6 12.3-11.6 6.9-.1 12.3 4.9 12.3 11.6zm-19.4 0c0 4 3.2 7.2 7.1 7.2 3.8 0 7-3.1 7-7.2 0-4-3.1-7.1-7-7.1-3.9-.1-7.1 3-7.1 7.1zm36.9 11.4l-3.6-6.6h-5.3v6.6h-5.2v-23h10c6 0 9.4 2.9 9.4 8 0 3.5-1.5 6.1-4.3 7.4l4.9 7.6h-5.9zm-9-10.8h4.8c2.9 0 4.5-1.3 4.5-3.9 0-2.6-1.6-3.8-4.5-3.8h-4.8v7.7zm36.1-12.1v4.3h-12.3v5h11.1V27h-11.1v5h12.7v4.3h-17.8v-23h17.4z" fill="#fff"/></svg>